<svg xmlns="http://www.w3.org/2000/svg" viewBox="0 0 512 512" fill="#4DE0C1">
  <path d="M366.292,174.923c-3.072-19.025-11.724-36.877-23.171-51.047c-10.95-13.609-24.308-23.99-39.42-31.358
    c-15.108-7.361-31.661-11.248-48.117-11.248c-13.33,0-26.622,2.788-39.125,8.252c-8.455-17.864-22.417-33.36-40.814-43.265
    c-18.43-9.923-40.059-12.232-59.783-6.389c-19.683,5.826-35.993,19.205-44.535,36.671c-8.568,17.52-8.998,37.89-1.196,56.61
    c-9.236,4.242-17.634,10.041-25.021,17.193c-13.314,12.89-22.46,29.882-26.016,48.147c-3.563,18.304-1.244,36.992,6.624,53.345
    c7.861,16.336,20.752,29.603,36.435,37.541c15.646,7.92,33.442,10.263,50.621,6.681c4.027,5.349,8.591,10.332,13.687,14.769
    c14.833,12.91,33.141,20.55,52.627,22.05c19.521,1.502,39.143-2.879,55.896-12.48c4.572,8.982,10.782,17.256,18.52,24.187
    c14.925,13.333,34.363,21.271,54.269,21.271c17.87,0,35.635-5.828,50.42-17.081c14.798-11.267,25.757-27.161,30.778-44.857
    c5.017-17.666,4.345-36.345-1.963-53.499C356.717,206.953,364.845,191.821,366.292,174.923z"/>
  <path d="M391.583,268.883c29.101,6.318,52.67-14.241,61.71-35.18c9.066-21.002,8.531-43.802-1.348-60.652
    c-9.87-16.834-26.901-26.12-45.414-24.829c1.301-19.597-8.162-37.571-25.198-47.779c-17.07-10.223-38.875-11.88-57.69-4.381
    c-7.654-30.98-54.043-49.974-84.981-36.361c-5.235-13.121-16.456-24.168-32.438-27.102c-15.961-2.927-31.652,2.023-42.803,13.589
    c-11.112,11.528-15.559,27.307-12.199,43.229c-13.292,3.768-24.133,12.598-29.94,24.737c-5.809,12.147-5.525,25.909,0.772,38.055
    c-22.459,3.524-42.338,17.122-51.823,37.944c-9.508,20.867-6.952,45.863,6.521,64.133c13.484,18.272,36.406,28.093,58.387,25.017
    c0.881,31.259,37.182,54.72,69.51,45.044c0.523,1.146,1.117,2.259,1.732,3.364c9.678,17.287,28.167,28.048,48.318,28.048
    c5.975,0,11.987-0.967,17.795-2.981c22.33-7.725,35.092-30.065,30.445-52.487c19.849-2.33,36.878-12.451,47.198-29.281
    C359.116,296.101,371.361,264.653,391.583,268.883z M344.729,371.34c-14.282,4.949-30.142-2.704-35.091-16.986
    c-2.469-7.121,0.258-9.444-8.193-7.534c-10.318,2.323-20.919,1.361-30.572-2.783c-9.638-4.139-17.608-11.128-22.96-20.232
    c-10.276-17.473-7.482-34.15-32.313-34.396c-20.483-0.202-38.414-0.202-45.683-23.022c-3.558-11.172-12.266-26.662-42.676-15.775
    c-16.293,5.826-34.598-5.018-40.433-21.354c-5.828-16.293,2.527-34.228,18.813-40.055c6.99-2.495,17.183-6.38,17.99-15.301
    c1.167-12.894,18.601-21.863,12.601-38.551c-4.828-13.434,1.861-28.282,15.296-33.11c13.423-4.822,28.285,1.857,33.109,15.288
    c0.524,1.456,1.505,2.517,2.764,3.047c9.854,4.159,15.002,13.697,13.692,21.274c-1.333,7.7-9.12,12.875-18.825,12.521
    c-9.727-0.354-17.776-6.276-18.1-13.975c-0.343-8.217-7.624-14.51-15.841-14.156c-8.217,0.343-14.5,7.623-14.156,15.84
    c0.745,17.769,16.376,31.979,36.612,33.25c12.033,0.755,23.651-2.537,32.664-9.172c9.038-6.651,14.354-16.232,14.981-26.812
    c0.615-10.356-2.701-20.734-9.342-29.175c3.825-13.393,14.244-23.098,26.502-26.077c12.392-3.006,24.848,0.475,33.964,9.509
    c1.812,1.796,4.254,2.759,6.736,2.686c2.478-0.078,4.863-1.182,6.578-3.071c3.496-3.851,3.206-9.802-0.645-13.298
    c-7.519-6.824-16.71-11.115-26.401-12.421c4.771-12.789,16.07-21.995,29.73-23.595c13.799-1.614,27.228,4.249,35.913,15.662
    c1.715,2.248,4.322,3.642,7.188,3.816c2.867,0.171,5.635-0.912,7.629-2.943c4.042-4.113,3.985-10.71-0.127-14.752
    c-6.341-6.232-13.91-10.891-22.164-13.688c6.576-8.904,17.965-13.611,29.36-11.23c11.312,2.355,19.791,11.768,21.215,22.823
    c-7.035,9.818-10.955,21.744-10.955,34.039c0,32.373,26.335,58.71,58.704,58.71c1.87,0,3.808-0.088,5.667-0.263
    c7.639,8.249,9.578,20.582,3.703,31.204c-5.828,10.507-18.337,15.835-30.03,12.833c-8.072-2.077-16.336,2.787-18.413,10.865
    c-2.077,8.073,2.787,16.335,10.864,18.412c6.401,1.646,12.739,2.424,18.874,2.424c26.495,0,49.936-14.307,59.047-38.283
    c5.797-15.242,5.234-31.749-1.566-46.524c2.68-1.86,5.177-3.962,7.455-6.29c11.313-11.575,14.797-28.159,9.133-42.8
    c-5.67-14.642-18.92-24.358-34.576-25.382c-15.642-1.046-30.352,6.74-38.329,20.206c-10.652-13.603-26.901-21.936-44.153-21.936
    c-31.126,0-56.428,25.305-56.428,56.438c0,2.152,0.124,4.349,0.367,6.503c-7.5,0.041-14.811,1.999-21.45,5.659
    c-14.648,8.064-23.552,23.215-23.552,40.093c0,3.099,0.314,6.231,0.938,9.314c-20.293,2.355-35.17,20.717-32.814,41.006
    c2.146,18.48,17.828,32.224,36.047,32.224c1.411,0,2.83-0.077,4.252-0.229c3.777,7.72,9.591,14.321,17.051,19.229
    c6.592,4.344,13.857,7.068,21.23,8.216c-7.245,18.369,0.91,39.364,19.148,48.209c5.921,2.879,12.21,4.219,18.405,4.219
    c15.446,0,30.456-8.665,37.654-23.5C366.662,392.137,359.01,366.39,344.729,371.34z"/>
  <!-- Medical Cross -->
  <rect x="380" y="255" width="80" height="30" rx="5" ry="5" />
  <rect x="405" y="230" width="30" height="80" rx="5" ry="5" />
</svg> 